<svg xmlns="http://www.w3.org/2000/svg" x="0px" y="0px" width="144" height="144" viewBox="0,0,256,256">
<defs><linearGradient x1="11" y1="18" x2="37" y2="18" gradientUnits="userSpaceOnUse" id="color-1_6e8rCucdqNpB_gr1"><stop offset="0" stop-color="#89a8b2"></stop><stop offset="1" stop-color="#57696f"></stop></linearGradient><linearGradient x1="11" y1="26.5" x2="37" y2="26.5" gradientUnits="userSpaceOnUse" id="color-2_6e8rCucdqNpB_gr2"><stop offset="0" stop-color="#89a8b2"></stop><stop offset="1" stop-color="#57696f"></stop></linearGradient><linearGradient x1="6" y1="26" x2="11" y2="26" gradientUnits="userSpaceOnUse" id="color-3_6e8rCucdqNpB_gr3"><stop offset="0" stop-color="#57696f"></stop><stop offset="1" stop-color="#89a8b2"></stop></linearGradient><linearGradient x1="6" y1="26.5" x2="42" y2="26.5" gradientUnits="userSpaceOnUse" id="color-4_6e8rCucdqNpB_gr4"><stop offset="0" stop-color="#57696f"></stop><stop offset="1" stop-color="#89a8b2"></stop></linearGradient></defs><g fill="none" fill-rule="nonzero" stroke="none" stroke-width="1" stroke-linecap="butt" stroke-linejoin="miter" stroke-miterlimit="10" stroke-dasharray="" stroke-dashoffset="0" font-family="none" font-weight="none" font-size="none" text-anchor="none" style="mix-blend-mode: normal"><g transform="scale(5.33333,5.33333)"><path d="M36.377,42h2.96c0.332,0 0.572,-0.318 0.481,-0.637l-1.818,-6.363h-4l1.896,6.637c0.062,0.215 0.258,0.363 0.481,0.363z" fill="#6b6b6b"></path><path d="M11.623,42h-2.96c-0.332,0 -0.572,-0.318 -0.481,-0.637l1.818,-6.363h4l-1.896,6.637c-0.062,0.215 -0.258,0.363 -0.481,0.363z" fill="#6b6b6b"></path><path d="M37,27c0,1.657 -1.343,3 -3,3h-20c-1.657,0 -3,-1.343 -3,-3v-18c0,-1.657 1.343,-3 3,-3h20c1.657,0 3,1.343 3,3z" fill="url(#color-1_6e8rCucdqNpB_gr1)"></path><path d="M37,30h-26v-5c0,-1.104 0.896,-2 2,-2h22c1.104,0 2,0.896 2,2z" fill="url(#color-2_6e8rCucdqNpB_gr2)"></path><path d="M11,35h-1c-2.209,0 -4,-1.791 -4,-4v-13c0,-0.552 0.448,-1 1,-1h3c0.552,0 1,0.448 1,1z" fill="url(#color-3_6e8rCucdqNpB_gr3)"></path><path d="M38.555,36.944l-0.555,-1.944h-4l0.571,2h3.429c0.19,0 0.371,-0.035 0.555,-0.056z" fill="#000000" opacity="0.05"></path><path d="M38.417,36.458l-0.417,-1.458h-4l0.429,1.5h3.571c0.143,0 0.277,-0.029 0.417,-0.042z" fill="#000000" opacity="0.07"></path><path d="M9.445,36.944l0.555,-1.944h4l-0.571,2h-3.429c-0.19,0 -0.371,-0.035 -0.555,-0.056z" fill="#000000" opacity="0.05"></path><path d="M9.583,36.458l0.417,-1.458h4l-0.429,1.5h-3.571c-0.143,0 -0.277,-0.029 -0.417,-0.042z" fill="#000000" opacity="0.07"></path><path d="M41,17h-3c-0.552,0 -1,0.448 -1,1v12h-31v2c0,2.209 1.791,4 4,4h28c2.209,0 4,-1.791 4,-4v-14c0,-0.552 -0.448,-1 -1,-1z" fill="url(#color-4_6e8rCucdqNpB_gr4)"></path></g></g>
</svg>